<?xml version="1.0" encoding="utf-8"?>
<!-- Generator: Adobe Illustrator 16.0.0, SVG Export Plug-In . SVG Version: 6.00 Build 0)  -->
<!DOCTYPE svg PUBLIC "-//W3C//DTD SVG 1.1//EN" "http://www.w3.org/Graphics/SVG/1.1/DTD/svg11.dtd">
<svg version="1.1" id="Layer_1" xmlns="http://www.w3.org/2000/svg" xmlns:xlink="http://www.w3.org/1999/xlink" x="0px" y="0px"
	 width="100.661px" height="71.358px" viewBox="0 0 100.661 71.358" enable-background="new 0 0 100.661 71.358"
	 xml:space="preserve">
<g>
	<polygon fill="#B4D6EE" points="14.812,47.303 14.811,47.303 14.812,47.303 	"/>
	<polygon fill="#B4D6EE" points="14.812,47.303 14.812,47.303 14.812,47.303 	"/>
	<polygon fill="#EBF4FB" points="80.223,8.2 51.774,13.999 66.392,26.766 	"/>
	<polygon fill="#B4D6EE" points="66.392,26.766 51.774,13.999 42.829,36.656 	"/>
	<polygon fill="#A9D0EB" points="1.737,19.362 0,36.656 14.811,47.303 	"/>
	<polygon fill="#EBF4FB" points="51.774,13.999 33.884,0 1.737,19.362 42.829,36.656 	"/>
	<polygon fill="#DFEEFA" points="1.737,19.362 14.811,47.303 14.812,47.303 14.812,47.303 24.187,67.34 42.829,36.656 	"/>
	<polygon fill="#DFEEFA" points="92.956,28.056 78.241,53.887 100.661,41.6 	"/>
	<polygon fill="#DFEEFA" points="54.542,71.358 78.241,53.887 42.829,36.656 	"/>
	<polygon fill="#C9EAFB" points="24.187,67.34 54.542,71.358 42.829,36.656 	"/>
	<polygon fill="#C9EAFB" points="80.223,8.2 66.392,26.766 78.241,53.887 92.956,28.056 	"/>
	<polygon fill="#9CCCEA" points="42.829,36.656 78.241,53.887 66.392,26.766 	"/>
</g>
</svg>
