<?xml version="1.0" encoding="utf-8"?>
<!-- Generator: Adobe Illustrator 16.0.0, SVG Export Plug-In . SVG Version: 6.00 Build 0)  -->
<!DOCTYPE svg PUBLIC "-//W3C//DTD SVG 1.1//EN" "http://www.w3.org/Graphics/SVG/1.1/DTD/svg11.dtd">
<svg version="1.1" id="Layer_1" xmlns="http://www.w3.org/2000/svg" xmlns:xlink="http://www.w3.org/1999/xlink" x="0px" y="0px"
	 width="585.245px" height="251.18px" viewBox="0 0 585.245 251.18" enable-background="new 0 0 585.245 251.18"
	 xml:space="preserve">
<g>
	<polygon fill="none" points="127.106,132.709 127.106,132.709 127.106,132.709 	"/>
	<polygon fill="none" points="130.854,129.217 127.106,132.709 127.106,132.709 	"/>
	<polygon fill="none" points="468.417,159.85 445.728,141.619 468.417,159.85 	"/>
	<polygon fill="none" points="517.37,253.43 517.619,253.727 517.721,253.434 	"/>
	<polygon fill="none" points="468.417,159.85 468.417,159.85 468.417,159.85 	"/>
	<polygon fill="none" points="127.106,132.709 124.798,134.863 127.106,132.709 	"/>
	<polygon fill="none" points="517.619,253.727 585.245,253.727 517.721,253.434 	"/>
	<polygon fill="none" points="585.245,253.727 506.305,190.291 506.305,190.291 	"/>
	<polygon fill="none" points="517.37,253.43 503.484,253.369 517.619,253.727 	"/>
	<polygon fill="none" points="506.305,190.291 506.305,190.291 506.305,190.291 	"/>
	<polygon fill="none" points="506.305,190.291 506.305,190.291 506.305,190.291 	"/>
	<rect x="487.361" y="150.769" fill="none" width="0" height="48.602"/>
	<polygon fill="#DF3026" points="218.646,160.576 218.643,160.576 198.302,186.1 241.015,186.352 	"/>
	<polygon fill="#E66247" points="280.928,151.014 254.231,115.931 241.015,186.352 	"/>
	<polygon fill="#E2473E" points="198.302,186.1 197.546,213.303 197.983,213.443 241.015,186.352 	"/>
	<polygon fill="#E24C2B" points="319.313,122.877 254.231,115.931 280.928,151.014 	"/>
	<polygon fill="#E66647" points="254.231,115.931 245.59,112.961 245.59,126.773 	"/>
	<polygon fill="#E66247" points="295.365,101.733 254.231,115.931 319.313,122.877 	"/>
	<polygon fill="#BB5F26" points="245.59,126.773 245.513,126.871 245.59,126.862 	"/>
	<polygon fill="#E24C2B" points="241.015,186.352 254.231,115.931 245.59,126.773 245.59,126.862 245.513,126.871 218.646,160.576 
		218.646,160.576 	"/>
	<polygon fill="#BB5F26" points="218.646,160.576 218.643,160.576 218.646,160.576 	"/>
	<polygon fill="#E8785E" points="245.59,112.961 235.376,109.452 235.376,109.452 235.376,109.452 209.212,100.463 209.212,100.463 
		209.212,100.463 200.961,97.628 194.131,131.947 245.513,126.871 245.59,126.773 	"/>
	<polygon fill="#DF3026" points="197.983,213.443 241.015,227.199 241.015,206.775 241.015,186.352 	"/>
	<polygon fill="#B83B2B" points="345.755,213.369 345.758,213.369 412.339,217.717 357.105,190.291 	"/>
	<polygon fill="#E2473E" points="412.339,151.949 357.105,190.291 412.339,186.1 	"/>
	<polygon fill="#B83B2B" points="444.098,156.244 412.339,186.1 462.211,188.326 	"/>
	<polygon fill="#E9A44C" points="275.588,91.028 254.231,115.931 295.365,101.733 	"/>
	<polygon fill="#BB5F26" points="462.211,188.326 462.211,188.326 462.211,188.326 	"/>
	<polygon fill="#DF3026" points="412.339,186.1 412.339,217.717 462.211,188.326 462.211,188.326 	"/>
	<polygon fill="#DF3026" points="412.339,186.1 444.098,156.244 462.211,188.326 462.211,188.326 468.417,159.85 468.417,159.85 
		412.339,151.532 412.339,151.949 	"/>
	<polygon fill="#BB5F26" points="345.755,213.369 345.758,213.369 345.755,213.369 	"/>
	<polygon fill="#E2473E" points="280.928,151.014 277.875,206.775 319.313,168.686 	"/>
	<polygon fill="#E2473E" points="241.015,186.352 241.015,206.775 277.875,206.775 280.928,151.014 	"/>
	<polygon fill="#DF3026" points="277.875,206.775 322.413,228.98 319.313,168.686 	"/>
	<polygon fill="#E2473E" points="319.313,168.686 322.413,228.98 322.414,228.98 345.755,213.369 345.755,213.369 	"/>
	<polygon fill="#C05347" points="357.105,190.291 412.339,217.717 412.339,186.1 	"/>
	<polygon fill="#BB5F26" points="361.842,144.043 361.842,144.043 361.842,144.043 	"/>
	<polygon fill="#BB5F26" points="322.413,228.98 322.414,228.98 322.413,228.98 	"/>
	<polygon fill="#F4D44D" points="226.35,40.208 207.109,58.141 236.858,46.131 	"/>
	<polygon fill="#F4D44D" points="245.59,50.847 245.59,51.055 275.588,67.969 286.267,50.847 	"/>
	<polygon fill="#BB5F26" points="200.961,97.628 200.961,97.628 200.961,97.628 	"/>
	<polygon fill="#E9BC9A" points="207.003,58.519 191.448,72.882 221.189,83.986 	"/>
	<polygon fill="#E2473E" points="506.305,190.291 468.417,159.85 462.211,188.326 	"/>
	<polygon fill="#C05347" points="63.6,227.199 63.6,227.199 93.559,251.18 93.559,214.697 	"/>
	<polygon fill="#B83B2B" points="78.282,178.219 46.082,208.232 63.6,227.199 93.559,214.697 	"/>
	<polygon fill="#B83B2B" points="78.282,178.219 158.133,202.371 160.169,170.336 	"/>
	<polygon fill="#EBAF63" points="275.588,91.028 275.588,91.028 295.365,67.969 295.365,67.969 275.588,67.969 254.231,115.931 
		275.588,91.028 	"/>
	<polygon fill="#C05347" points="93.559,214.697 130.166,224.234 158.133,202.371 78.282,178.219 	"/>
	<polygon fill="#B83B2B" points="93.559,251.18 130.166,224.234 93.559,214.697 	"/>
	<polygon fill="#ECB042" points="319.313,122.877 339.148,77.796 295.365,67.969 295.365,67.969 	"/>
	<polygon fill="#E9A624" points="275.588,91.028 295.365,101.733 295.365,67.969 	"/>
	<polygon fill="#DF3026" points="345.755,213.369 357.105,190.291 319.313,168.686 	"/>
	<polygon fill="#BB5F26" points="295.365,67.969 295.365,67.969 295.365,67.969 	"/>
	<polygon fill="#BB5F26" points="295.365,67.969 295.365,67.969 295.365,67.969 	"/>
	<polygon fill="#ECB042" points="295.365,67.969 295.365,101.733 319.313,122.877 295.365,67.969 	"/>
	<polygon fill="#E66247" points="361.842,144.043 361.842,144.043 352.368,119.405 319.313,168.686 	"/>
	<polygon fill="#E2473E" points="357.105,190.291 361.842,144.043 319.313,168.686 	"/>
	<polygon fill="#E8785E" points="319.313,168.686 352.368,119.405 319.313,122.877 	"/>
	<polygon fill="#E66247" points="280.928,151.014 319.313,168.686 319.313,122.877 	"/>
	<polygon fill="#EBAF63" points="352.368,119.405 339.148,77.796 319.313,122.877 	"/>
	<polygon fill="#C05347" points="197.546,213.303 198.302,186.1 158.133,202.371 176.133,227.199 197.983,213.443 	"/>
	<polygon fill="#B83B2B" points="506.305,190.291 506.305,190.291 462.211,188.326 462.211,188.326 487.108,217.717 
		487.108,217.717 	"/>
	<polygon fill="#BB5F26" points="487.108,217.717 487.108,217.717 487.108,217.717 	"/>
	<polygon fill="#C05347" points="433.216,251.605 487.108,217.717 462.211,188.326 	"/>
	<polygon fill="#B83B2B" points="526.262,228.98 582.865,251.816 526.262,228.98 517.721,253.434 585.245,253.727 506.305,190.291 	
		"/>
	<polygon fill="#C05347" points="526.262,228.98 489.914,217.717 526.262,228.98 506.305,190.291 506.305,190.291 487.108,217.717 
		487.108,217.717 517.37,253.43 517.721,253.434 	"/>
	<polygon fill="#B83B2B" points="345.758,213.369 368.639,252.027 412.339,217.717 	"/>
	<polygon fill="#B83B2B" points="322.413,228.98 280.928,251.18 368.639,252.027 322.414,228.98 	"/>
	<polygon fill="#C05347" points="345.755,213.369 322.414,228.98 368.639,252.027 345.758,213.369 	"/>
	<polygon fill="#E2473E" points="412.339,151.532 468.417,159.85 445.728,141.619 412.339,114.789 	"/>
	<polygon fill="#A73526" points="368.639,252.027 433.216,251.605 412.339,217.717 	"/>
	<polygon fill="#B83B2B" points="412.339,217.717 433.216,251.605 462.211,188.326 	"/>
	<polygon fill="#F3CE30" points="296.786,21.938 269.487,0 279.085,29.083 	"/>
	<polygon fill="#E2473E" points="160.169,170.336 127.106,132.709 124.798,134.863 78.282,178.219 	"/>
	<polygon fill="#A73526" points="176.133,227.199 158.133,202.371 130.166,224.234 140.338,251.18 130.166,224.234 93.559,251.18 
		63.6,227.199 63.6,227.199 6.102,251.18 63.6,227.199 46.082,208.232 0,251.18 194.131,252.027 	"/>
	<polygon fill="#DF3026" points="361.842,144.043 357.105,190.291 412.339,151.949 412.339,151.532 361.842,144.043 	"/>
	<polygon fill="#BB5F26" points="368.639,252.027 280.928,251.18 221.189,251.18 194.131,252.027 0,251.18 503.484,253.369 
		433.216,251.605 	"/>
	<polygon fill="#B83B2B" points="487.108,217.717 487.108,252.707 487.108,217.717 487.108,217.717 433.216,251.605 
		503.484,253.369 517.37,253.43 	"/>
	<polygon fill="#BB5F26" points="46.082,208.232 46.082,208.232 78.282,178.219 124.798,134.863 0,251.18 46.082,208.232 	"/>
	<polygon fill="#A73526" points="322.413,228.98 277.875,206.775 280.928,251.18 322.413,228.98 	"/>
	<polygon fill="#F4D44D" points="279.085,29.083 269.487,0 250.371,40.676 	"/>
	<polygon fill="#E66647" points="158.133,132.709 164.748,97.628 130.854,129.217 127.106,132.709 	"/>
	<polygon fill="#F3CE30" points="236.858,46.131 250.371,40.676 269.487,0 226.35,40.208 	"/>
	<polygon fill="#E6B28A" points="174.498,88.538 191.448,72.882 191.448,72.882 191.448,72.882 207.003,58.519 221.189,83.986 
		245.59,77.796 207.109,58.141 226.35,40.208 269.487,0 130.854,129.217 164.748,97.628 	"/>
	<polygon fill="#BB5F26" points="319.313,40.038 412.339,114.789 445.728,141.619 269.487,0 296.786,21.938 	"/>
	<polygon fill="#F3CE30" points="286.267,50.847 279.085,29.083 250.371,40.676 245.59,50.847 	"/>
	<polygon fill="#F3CE30" points="275.588,67.969 295.365,67.969 295.365,67.969 319.313,40.038 286.267,50.847 	"/>
	<polygon fill="#F4D44D" points="319.313,40.038 296.786,21.938 279.085,29.083 286.267,50.847 	"/>
	<polygon fill="#F4D44D" points="245.59,50.847 250.371,40.676 236.858,46.131 245.59,51.055 	"/>
	<polygon fill="#E9A624" points="245.59,51.055 245.59,77.796 275.588,67.969 	"/>
	<polygon fill="#ECB042" points="236.858,46.131 207.109,58.141 245.59,77.796 245.59,51.055 	"/>
	<polygon fill="#E24C2B" points="412.339,151.532 412.339,114.789 361.842,144.043 	"/>
	<polygon fill="#E8785E" points="361.842,144.043 361.842,144.043 412.339,114.789 352.368,119.405 	"/>
	<polygon fill="#F4D44D" points="339.148,77.796 319.313,40.038 295.365,67.969 	"/>
	<polygon fill="#E9A44C" points="352.368,119.405 412.339,114.789 339.148,77.796 	"/>
	<polygon fill="#EBAF63" points="412.339,114.789 319.313,40.038 339.148,77.796 	"/>
	<polygon fill="#E2473E" points="218.643,160.576 160.169,170.336 198.302,186.1 	"/>
	<polygon fill="#E24C2B" points="218.646,160.576 164.748,97.628 158.133,132.709 174.498,144.375 186.368,122.877 174.498,144.375 
		174.498,144.375 174.498,144.375 160.169,170.336 218.643,160.576 	"/>
	<polygon fill="#C05347" points="241.015,206.775 241.015,227.199 280.928,251.18 277.875,206.775 	"/>
	<polygon fill="#DF3026" points="160.169,170.336 158.133,202.371 198.302,186.1 	"/>
	<polygon fill="#ECB042" points="254.231,115.931 275.588,67.969 245.59,77.796 245.59,112.961 	"/>
	<polygon fill="#A73526" points="221.189,251.18 280.928,251.18 241.015,227.199 	"/>
	<polygon fill="#B83B2B" points="197.983,213.443 176.133,227.199 194.131,252.027 221.189,251.18 241.015,227.199 	"/>
	<polygon fill="#E9BC9A" points="245.59,112.961 245.59,77.796 221.189,83.986 235.376,109.452 	"/>
	<polygon fill="#E6B28A" points="235.376,109.452 221.189,83.986 209.212,100.463 	"/>
	<polygon fill="#E6B28A" points="200.961,97.628 200.961,97.628 209.212,100.463 221.189,83.986 191.448,72.882 174.498,88.538 
		200.961,97.628 	"/>
	<polygon fill="#DF3026" points="158.133,132.709 127.106,132.709 127.106,132.709 160.169,170.336 174.498,144.375 	"/>
	<polygon fill="#E66647" points="245.513,126.871 194.131,131.947 200.961,97.628 200.961,97.628 171.775,105.836 200.961,97.628 
		174.498,88.538 164.748,97.628 218.646,160.576 	"/>
</g>
</svg>
